<?xml version="1.0" encoding="UTF-8" standalone="no"?>
<!DOCTYPE svg PUBLIC "-//W3C//DTD SVG 1.1//EN" "http://www.w3.org/Graphics/SVG/1.1/DTD/svg11.dtd">
<svg width="100%" height="100%" viewBox="0 0 570 492" version="1.1" xmlns="http://www.w3.org/2000/svg" xmlns:xlink="http://www.w3.org/1999/xlink" xml:space="preserve" xmlns:serif="http://www.serif.com/" style="fill-rule:evenodd;clip-rule:evenodd;stroke-linejoin:round;stroke-miterlimit:2;">
    <g transform="matrix(1.08626,0,0,1.08626,-2.47298,494.79)">
        <path d="M0,-459.7C41.1,-434.9 82.2,-410 128.9,-396.6C175.6,-383.2 227.9,-381.2 256.3,-352.7C284.7,-324.3 289.2,-269.4 320.4,-232.8C351.6,-196.1 409.5,-177.8 437.2,-142.1C464.9,-106.3 462.3,-53.2 459.7,0L0,0L0,-459.7Z" style="fill:rgb(38,25,28);fill-rule:nonzero;"/>
        <path d="M0,-402.2C35.9,-380.5 71.9,-358.8 112.8,-347C153.6,-335.3 199.4,-333.5 224.2,-308.6C249.1,-283.7 253,-235.7 280.3,-203.7C307.6,-171.6 358.3,-155.6 382.6,-124.3C406.8,-93 404.5,-46.5 402.2,0L0,0L0,-402.2Z" style="fill:rgb(68,38,42);fill-rule:nonzero;"/>
        <path d="M0,-344.8C30.8,-326.1 61.6,-307.5 96.6,-297.4C131.7,-287.4 170.9,-285.9 192.2,-264.5C213.5,-243.2 216.9,-202 240.3,-174.6C263.7,-147.1 307.1,-133.4 327.9,-106.5C348.7,-79.7 346.7,-39.9 344.8,0L0,0L0,-344.8Z" style="fill:rgb(99,52,52);fill-rule:nonzero;"/>
        <path d="M0,-287.3C25.7,-271.8 51.4,-256.3 80.5,-247.9C109.7,-239.5 142.4,-238.2 160.2,-220.5C177.9,-202.7 180.7,-168.4 200.2,-145.5C219.7,-122.6 256,-111.1 273.3,-88.8C290.6,-66.4 288.9,-33.2 287.3,0L0,0L0,-287.3Z" style="fill:rgb(130,68,57);fill-rule:nonzero;"/>
        <path d="M0,-229.9C20.5,-217.4 41.1,-205 64.4,-198.3C87.8,-191.6 113.9,-190.6 128.1,-176.4C142.3,-162.1 144.6,-134.7 160.2,-116.4C175.8,-98.1 204.8,-88.9 218.6,-71C232.4,-53.2 231.1,-26.6 229.9,0L0,0L0,-229.9Z" style="fill:rgb(158,87,59);fill-rule:nonzero;"/>
        <path d="M0,-172.4C15.4,-163.1 30.8,-153.8 48.3,-148.7C65.8,-143.7 85.5,-142.9 96.1,-132.3C106.8,-121.6 108.4,-101 120.1,-87.3C131.8,-73.6 153.6,-66.7 164,-53.3C174.3,-39.9 173.4,-19.9 172.4,0L0,0L0,-172.4Z" style="fill:rgb(183,110,58);fill-rule:nonzero;"/>
        <path d="M0,-114.9C10.3,-108.7 20.5,-102.5 32.2,-99.1C43.9,-95.8 57,-95.3 64.1,-88.2C71.2,-81.1 72.3,-67.3 80.1,-58.2C87.9,-49 102.4,-44.5 109.3,-35.5C116.2,-26.6 115.6,-13.3 114.9,0L0,0L0,-114.9Z" style="fill:rgb(203,136,54);fill-rule:nonzero;"/>
        <path d="M0,-57.5C5.1,-54.4 10.3,-51.3 16.1,-49.6C21.9,-47.9 28.5,-47.6 32,-44.1C35.6,-40.5 36.1,-33.7 40,-29.1C43.9,-24.5 51.2,-22.2 54.7,-17.8C58.1,-13.3 57.8,-6.6 57.5,0L0,0L0,-57.5Z" style="fill:rgb(211,150,52);fill-rule:nonzero;"/>
    </g>
</svg>
