<?xml version="1.0" encoding="UTF-8" standalone="no"?>
<!DOCTYPE svg PUBLIC "-//W3C//DTD SVG 1.1//EN" "http://www.w3.org/Graphics/SVG/1.1/DTD/svg11.dtd">
<svg width="100%" height="100%" viewBox="0 0 570 492" version="1.1" xmlns="http://www.w3.org/2000/svg" xmlns:xlink="http://www.w3.org/1999/xlink" xml:space="preserve" xmlns:serif="http://www.serif.com/" style="fill-rule:evenodd;clip-rule:evenodd;stroke-linejoin:round;stroke-miterlimit:2;">
    <g transform="matrix(7.6796e-17,1.24775,-1.24775,7.6796e-17,581.393,496.519)">
        <path d="M0,459.7C-49.9,459.4 -99.9,459 -142.1,437.2C-184.2,415.4 -218.7,372.2 -236.9,326C-255.1,279.9 -257.1,230.7 -269.4,195.7C-281.7,160.8 -304.2,140 -337.6,109.7C-371.1,79.4 -415.4,39.7 -459.7,0L0,0L0,459.7Z" style="fill:rgb(38,25,28);fill-rule:nonzero;"/>
        <path d="M0,402.2C-43.7,401.9 -87.4,401.6 -124.3,382.6C-161.2,363.5 -191.3,325.7 -207.3,285.3C-223.2,244.9 -225,201.9 -235.7,171.3C-246.5,140.7 -266.2,122.5 -295.4,96C-324.7,69.5 -363.5,34.8 -402.2,0L0,0L0,402.2Z" style="fill:rgb(68,38,42);fill-rule:nonzero;"/>
        <path d="M0,344.8C-37.5,344.5 -74.9,344.2 -106.5,327.9C-138.2,311.6 -164,279.2 -177.7,244.5C-191.3,209.9 -192.8,173 -202.1,146.8C-211.3,120.6 -228.1,105 -253.2,82.3C-278.3,59.6 -311.5,29.8 -344.8,0L0,0L0,344.8Z" style="fill:rgb(99,52,52);fill-rule:nonzero;"/>
        <path d="M0,287.3C-31.2,287.1 -62.4,286.9 -88.8,273.3C-115.1,259.6 -136.7,232.6 -148,203.8C-159.4,174.9 -160.7,144.2 -168.4,122.3C-176,100.5 -190.1,87.5 -211,68.6C-231.9,49.7 -259.6,24.8 -287.3,0L0,0L0,287.3Z" style="fill:rgb(130,68,57);fill-rule:nonzero;"/>
        <path d="M0,229.9C-25,229.7 -49.9,229.5 -71,218.6C-92.1,207.7 -109.3,186.1 -118.4,163C-127.6,139.9 -128.6,115.4 -134.7,97.9C-140.8,80.4 -152.1,70 -168.8,54.9C-185.5,39.7 -207.7,19.9 -229.9,0L0,0L0,229.9Z" style="fill:rgb(158,87,59);fill-rule:nonzero;"/>
        <path d="M0,172.4C-18.7,172.3 -37.5,172.1 -53.3,164C-69.1,155.8 -82,139.6 -88.8,122.3C-95.7,104.9 -96.4,86.5 -101,73.4C-105.6,60.3 -114.1,52.5 -126.6,41.1C-139.1,29.8 -155.8,14.9 -172.4,0L0,0L0,172.4Z" style="fill:rgb(183,110,58);fill-rule:nonzero;"/>
        <path d="M0,114.9C-12.5,114.8 -25,114.7 -35.5,109.3C-46.1,103.9 -54.7,93.1 -59.2,81.5C-63.8,70 -64.3,57.7 -67.4,48.9C-70.4,40.2 -76,35 -84.4,27.4C-92.8,19.9 -103.8,9.9 -114.9,0L0,0L0,114.9Z" style="fill:rgb(203,136,54);fill-rule:nonzero;"/>
        <path d="M0,57.5C-6.2,57.4 -12.5,57.4 -17.8,54.7C-23,51.9 -27.3,46.5 -29.6,40.8C-31.9,35 -32.1,28.8 -33.7,24.5C-35.2,20.1 -38,17.5 -42.2,13.7C-46.4,9.9 -51.9,5 -57.5,0L0,0L0,57.5Z" style="fill:rgb(211,150,52);fill-rule:nonzero;"/>
    </g>
</svg>
