<?xml version="1.0" encoding="UTF-8" standalone="no"?>
<!DOCTYPE svg PUBLIC "-//W3C//DTD SVG 1.1//EN" "http://www.w3.org/Graphics/SVG/1.1/DTD/svg11.dtd">
<svg width="100%" height="100%" viewBox="0 0 526 100" version="1.1" xmlns="http://www.w3.org/2000/svg" xmlns:xlink="http://www.w3.org/1999/xlink" xml:space="preserve" xmlns:serif="http://www.serif.com/" style="fill-rule:evenodd;clip-rule:evenodd;stroke-linejoin:round;stroke-miterlimit:2;">
    <g id="Layer_x0020_1" transform="matrix(0.0216878,0,0,0.0216878,7.38655,6.46389)">
        <g id="_1421344023328" transform="matrix(1.01512,0,0,1.01512,19482.9,-32.9037)">
            <path d="M4030.06,2540.77C3756.82,3636.78 2646.74,4303.79 1550.6,4030.48C454.92,3757.24 -212.09,2647.09 61.27,1551.17C334.39,455.04 1444.47,-212.02 2540.27,61.22C3636.33,334.46 4303.3,1444.73 4030.03,2540.79L4030.05,2540.77L4030.06,2540.77Z" style="fill:rgb(247,147,26);fill-rule:nonzero;"/>
            <path d="M2947.77,1754.38C2988.49,1482.12 2781.21,1335.77 2497.77,1238.14L2589.72,869.34L2365.22,813.4L2275.71,1172.49C2216.69,1157.77 2156.08,1143.9 2095.84,1130.15L2186,768.69L1961.64,712.75L1869.64,1081.43C1820.8,1070.31 1772.83,1059.32 1726.29,1047.74L1726.55,1046.58L1416.96,969.27L1357.24,1209.05C1357.24,1209.05 1523.8,1247.23 1520.29,1249.58C1611.2,1272.27 1627.64,1332.45 1624.91,1380.15L1520.17,1800.3C1526.43,1801.89 1534.55,1804.19 1543.51,1807.79C1536.02,1805.93 1528.05,1803.9 1519.78,1801.92L1372.97,2390.49C1361.86,2418.11 1333.66,2459.56 1270.1,2443.82C1272.35,2447.08 1106.93,2403.1 1106.93,2403.1L995.47,2660.08L1287.62,2732.91C1341.97,2746.54 1395.23,2760.8 1447.68,2774.21L1354.78,3147.24L1579.02,3203.18L1671.02,2834.11C1732.28,2850.74 1791.73,2866.08 1849.93,2880.54L1758.24,3247.87L1982.75,3303.81L2075.64,2931.48C2458.46,3003.93 2746.31,2974.72 2867.47,2628.46C2965.1,2349.68 2862.61,2188.88 2661.21,2084.02C2807.9,2050.19 2918.39,1953.71 2947.85,1754.41L2947.78,1754.36L2947.77,1754.38ZM2434.84,2473.64C2365.46,2752.42 1896.08,2601.72 1743.9,2563.93L1867.18,2069.73C2019.35,2107.72 2507.35,2182.9 2434.85,2473.64L2434.84,2473.64ZM2504.27,1750.34C2440.98,2003.92 2050.31,1875.09 1923.58,1843.5L2035.35,1395.29C2162.08,1426.88 2570.2,1485.84 2504.29,1750.34L2504.27,1750.34Z" style="fill:white;fill-rule:nonzero;"/>
        </g>
        <g transform="matrix(1.66084,0,0,1.66084,13081.5,-32.1508)">
            <circle cx="1250" cy="1250" r="1250" style="fill:rgb(46,49,72);"/>
            <circle cx="1250" cy="1250" r="725.31" style="fill:rgb(27,30,54);"/>
            <path d="M1252.57,159.47C1117.64,159.47 1008.23,648.87 1008.23,1252.58C1008.23,1856.29 1117.64,2345.69 1252.57,2345.69C1387.5,2345.69 1496.91,1856.29 1496.91,1252.58C1496.91,648.87 1387.5,159.47 1252.57,159.47ZM1269.44,2284C1254.01,2304.58 1238.58,2289.14 1238.58,2289.14C1176.44,2217.14 1145.37,2083.38 1145.37,2083.38C1036.68,1733.59 1062.55,982.56 1062.55,982.56C1113.63,386.32 1206.55,245.47 1238.17,214.2C1244.81,207.639 1255.3,206.79 1262.91,212.2C1308.79,244.71 1347.27,380.67 1347.27,380.67C1460.9,802.48 1450.61,1198.57 1450.61,1198.57C1460.9,1543.22 1393.67,1929.02 1393.67,1929.02C1341.92,2222.22 1269.44,2284 1269.44,2284Z" style="fill:rgb(111,115,144);fill-rule:nonzero;"/>
            <path d="M2200.72,708.59C2133.54,591.51 1654.63,740.17 1130.72,1040.59C606.81,1341.01 237.25,1679.48 304.38,1796.51C371.51,1913.54 850.47,1764.93 1374.38,1464.51C1898.29,1164.09 2267.85,825.62 2200.72,708.59ZM366.36,1780.45C340.64,1777.21 346.45,1756.07 346.45,1756.07C378,1666.36 478.4,1572.84 478.4,1572.84C727.83,1304.48 1392.19,953.19 1392.19,953.19C1934.73,700.77 2103.25,711.42 2146,723.19C2155.02,725.708 2160.97,734.453 2160,743.77C2154.86,799.77 2055.83,900.77 2055.83,900.77C1746.71,1209.36 1398,1397.58 1398,1397.58C1104.17,1578.08 736.07,1711.67 736.07,1711.67C455.98,1812.6 366.37,1780.45 366.37,1780.45L366.36,1780.45Z" style="fill:rgb(111,115,144);fill-rule:nonzero;"/>
            <path d="M2198.35,1800.41C2266.05,1683.64 1897.42,1343.62 1375.35,1040.94C853.28,738.26 374.43,587.76 306.79,704.73C239.15,821.7 607.72,1161.52 1130.09,1464.2C1652.46,1766.88 2130.71,1917.39 2198.35,1800.41ZM351.65,749.85C341.65,726.14 362.76,720.43 362.76,720.43C456.22,702.78 587.5,743 587.5,743C944.65,824.33 1581.5,1223.25 1581.5,1223.25C2071.83,1566.36 2147.03,1717.49 2158.3,1760.39C2160.66,1769.44 2156.11,1778.96 2147.6,1782.82C2096.47,1806.23 1959.53,1771.35 1959.53,1771.35C1537.46,1658.18 1199.91,1450.83 1199.91,1450.83C896.62,1287.25 596.72,1035.55 596.72,1035.55C368.84,843.68 351.72,750.11 351.72,750.11L351.65,749.85Z" style="fill:rgb(111,115,144);fill-rule:nonzero;"/>
            <circle cx="1250" cy="1250" r="128.6" style="fill:rgb(183,185,200);"/>
            <ellipse cx="1777.26" cy="756.17" rx="74.59" ry="77.16" style="fill:rgb(183,185,200);"/>
            <ellipse cx="552.98" cy="1018.52" rx="74.59" ry="77.16" style="fill:rgb(183,185,200);"/>
            <ellipse cx="1098.25" cy="1965.02" rx="74.59" ry="77.16" style="fill:rgb(183,185,200);"/>
        </g>
        <g transform="matrix(10.4452,0,0,10.4452,151.871,416.009)">
            <path d="M64.6,237.9C67,235.5 70.3,234.1 73.8,234.1L391.2,234.1C397,234.1 399.9,241.1 395.8,245.2L333.1,307.9C330.7,310.3 327.4,311.7 323.9,311.7L6.5,311.7C0.7,311.7 -2.2,304.7 1.9,300.6L64.6,237.9Z" style="fill:url(#_Linear1);fill-rule:nonzero;"/>
            <path d="M64.6,3.8C67.1,1.4 70.4,0 73.8,0L391.2,0C397,0 399.9,7 395.8,11.1L333.1,73.8C330.7,76.2 327.4,77.6 323.9,77.6L6.5,77.6C0.7,77.6 -2.2,70.6 1.9,66.5L64.6,3.8Z" style="fill:url(#_Linear2);fill-rule:nonzero;"/>
            <path d="M333.1,120.1C330.7,117.7 327.4,116.3 323.9,116.3L6.5,116.3C0.7,116.3 -2.2,123.3 1.9,127.4L64.6,190.1C67,192.5 70.3,193.9 73.8,193.9L391.2,193.9C397,193.9 399.9,186.9 395.8,182.8L333.1,120.1Z" style="fill:url(#_Linear3);fill-rule:nonzero;"/>
        </g>
    </g>
    <g id="_1421394342400" transform="matrix(0.0705354,0,0,0.0705354,164.669,5.74122)">
        <g id="Layer_x0020_11" serif:id="Layer_x0020_1">
            <g id="_14213943424001" serif:id="_1421394342400">
                <g>
                    <path d="M392.07,0L383.5,29.11L383.5,873.74L392.07,882.29L784.13,650.54L392.07,0Z" style="fill:rgb(52,52,52);fill-rule:nonzero;"/>
                    <path d="M392.07,0L-0,650.54L392.07,882.29L392.07,0Z" style="fill:rgb(140,140,140);fill-rule:nonzero;"/>
                    <path d="M392.07,956.52L387.24,962.41L387.24,1263.28L392.07,1277.38L784.37,724.89L392.07,956.52Z" style="fill:rgb(60,60,59);fill-rule:nonzero;"/>
                    <path d="M392.07,1277.38L392.07,956.52L-0,724.89L392.07,1277.38Z" style="fill:rgb(140,140,140);fill-rule:nonzero;"/>
                    <path d="M392.07,882.29L784.13,650.54L392.07,472.33L392.07,882.29Z" style="fill:rgb(20,20,20);fill-rule:nonzero;"/>
                    <path d="M0,650.54L392.07,882.29L392.07,472.33L0,650.54Z" style="fill:rgb(57,57,57);fill-rule:nonzero;"/>
                </g>
            </g>
        </g>
    </g>
    <defs>
        <linearGradient id="_Linear1" x1="0" y1="0" x2="1" y2="0" gradientUnits="userSpaceOnUse" gradientTransform="matrix(-219.666,420.749,-420.749,-219.666,360.879,-37.4553)"><stop offset="0" style="stop-color:rgb(0,255,163);stop-opacity:1"/><stop offset="1" style="stop-color:rgb(220,31,255);stop-opacity:1"/></linearGradient>
        <linearGradient id="_Linear2" x1="0" y1="0" x2="1" y2="0" gradientUnits="userSpaceOnUse" gradientTransform="matrix(-219.666,420.749,-420.749,-219.666,264.829,-87.6014)"><stop offset="0" style="stop-color:rgb(0,255,163);stop-opacity:1"/><stop offset="1" style="stop-color:rgb(220,31,255);stop-opacity:1"/></linearGradient>
        <linearGradient id="_Linear3" x1="0" y1="0" x2="1" y2="0" gradientUnits="userSpaceOnUse" gradientTransform="matrix(-219.666,420.749,-420.749,-219.666,312.548,-62.688)"><stop offset="0" style="stop-color:rgb(0,255,163);stop-opacity:1"/><stop offset="1" style="stop-color:rgb(220,31,255);stop-opacity:1"/></linearGradient>
    </defs>
</svg>
