<?xml version="1.0" encoding="UTF-8" standalone="no"?>
<!DOCTYPE svg PUBLIC "-//W3C//DTD SVG 1.1//EN" "http://www.w3.org/Graphics/SVG/1.1/DTD/svg11.dtd">
<svg width="100%" height="100%" viewBox="0 0 40 40" version="1.1" xmlns="http://www.w3.org/2000/svg" xmlns:xlink="http://www.w3.org/1999/xlink" xml:space="preserve" xmlns:serif="http://www.serif.com/" style="fill-rule:evenodd;clip-rule:evenodd;stroke-linejoin:round;stroke-miterlimit:2;">
    <g id="acidlogo.svg" transform="matrix(0.167529,0,0,0.167529,20,20)">
        <g transform="matrix(1,0,0,1,-117,-133)">
            <g transform="matrix(1,0,0,1,1.10268,-8.87334)">
                <path d="M78.388,116.182C116.045,116.182 146.617,146.754 146.617,184.411C146.617,222.067 116.045,252.639 78.388,252.639C40.732,252.639 10.16,222.067 10.16,184.411C10.16,146.754 40.732,116.182 78.388,116.182ZM78.388,169.614C70.222,169.614 63.592,176.244 63.592,184.411C63.592,192.577 70.222,199.207 78.388,199.207C86.555,199.207 93.185,192.577 93.185,184.411C93.185,176.244 86.555,169.614 78.388,169.614Z"/>
            </g>
            <g transform="matrix(1,0,0,1,3.97658,1.50245)">
                <path d="M216.224,242.081C169.734,242.081 189.605,242.351 149.069,241.578L149.384,150.409C150.367,70.083 50.073,89.707 46.766,87.388L44.971,31.751C134.477,17.975 197.536,41.212 207.863,92.35C217.983,142.463 216.224,242.081 216.224,242.081Z"/>
            </g>
            <g transform="matrix(0.583973,0,0,0.899053,50.1945,15.2174)">
                <rect x="124.543" y="161.334" width="56.575" height="33.874"/>
            </g>
        </g>
    </g>
</svg>
